<svg width="15" height="15" viewBox="0 0 15 15" fill="none" xmlns="http://www.w3.org/2000/svg">
  <path d="M3.75 13C3.0625 13 2.474 12.7552 1.9844 12.2656C1.4948 11.776 1.25 11.1875 1.25 10.5V5.5C1.25 4.8125 1.4948 4.224 1.9844 3.7344C2.474 3.2448 3.0625 3 3.75 3H11.25C11.9375 3 12.526 3.2448 13.0156 3.7344C13.5052 4.224 13.75 4.8125 13.75 5.5V10.5C13.75 11.1875 13.5052 11.776 13.0156 12.2656C12.526 12.7552 11.9375 13 11.25 13H3.75ZM3.75 5.5H11.25C11.4792 5.5 11.6979 5.526 11.9063 5.5781C12.1146 5.6302 12.3125 5.7135 12.5 5.8281V5.5C12.5 5.1562 12.3776 4.862 12.1328 4.6172C11.888 4.3724 11.5938 4.25 11.25 4.25H3.75C3.4062 4.25 3.112 4.3724 2.8672 4.6172C2.6224 4.862 2.5 5.1562 2.5 5.5V5.8281C2.6875 5.7135 2.8854 5.6302 3.0938 5.5781C3.3021 5.526 3.5208 5.5 3.75 5.5ZM2.5938 7.5312L9.5469 9.2188C9.6406 9.2396 9.7344 9.2396 9.8281 9.2188C9.9219 9.1979 10.0104 9.1562 10.0938 9.0938L12.2656 7.2812C12.151 7.125 12.0052 6.9974 11.8281 6.8984C11.651 6.7995 11.4583 6.75 11.25 6.75H3.75C3.4792 6.75 3.2422 6.8203 3.0391 6.9609C2.8359 7.1016 2.6875 7.2917 2.5938 7.5312Z" fill="#18181B" />
</svg>